<svg version="1.2" xmlns="http://www.w3.org/2000/svg" viewBox="0 0 105 105" width="105" height="105">
	<title>safety_2_logo-svg</title>
	<defs>
		<linearGradient id="g1" x2="1" gradientUnits="userSpaceOnUse" gradientTransform="matrix(-42.37,-73.39,81.013,-46.771,73.26,88.61)">
			<stop offset="0" stop-color="#bcb9a4"/>
			<stop offset=".37" stop-color="#c1c559"/>
			<stop offset=".72" stop-color="#c6cf18"/>
			<stop offset=".88" stop-color="#c8d400"/>
		</linearGradient>
	</defs>
	<style>
		.s0 { fill: url(#g1) }
	</style>
	<path id="Layer" class="s0" d="m94.4 60.4l-42.8-23.2 1.5-2.6 41.3 22.4v-21.5c0-5-2.6-9.6-6.9-12l-28.5-16.5c-4.3-2.5-9.6-2.5-13.9 0l-28.5 16.5c-4.2 2.4-6.9 7-6.9 12v6.2l42.6 23.1-1.4 2.6-41.2-22.3v23.3c0 4.9 2.7 9.5 6.9 12l28.5 16.4c4.3 2.5 9.6 2.5 13.9 0l28.5-16.4c4.3-2.5 6.9-7.1 6.9-12v-8z"/>
</svg>
